<?xml version="1.0" encoding="utf-8"?>
<!-- Generator: Adobe Illustrator 26.5.0, SVG Export Plug-In . SVG Version: 6.00 Build 0)  -->
<svg version="1.1" id="レイヤー_1" xmlns="http://www.w3.org/2000/svg" xmlns:xlink="http://www.w3.org/1999/xlink" x="0px"
	 y="0px" width="14.2px" height="16px" viewBox="0 0 14.2 16" style="enable-background:new 0 0 14.2 16;" xml:space="preserve">
<style type="text/css">
	.st0{fill-rule:evenodd;clip-rule:evenodd;fill:#333333;}
</style>
<g id="black_x2F_logo_x5F_symbol_00000024712832856029259680000012404606608392854207_">
	<path id="Shape_00000070102189318967618450000012576104300906715536_" class="st0" d="M5.4,5.4V4.2c0-0.2,0-0.3,0-0.4
		c0.1-0.3,0.4-0.5,0.8-0.5S6.9,3.5,7,3.8c0,0.1,0,0.2,0,0.4v1.9c0,0.1,0,0.2,0,0.3C7,6.7,6.7,7,6.4,7C6.3,7,6.2,7,6.1,7H4.2
		C4,7,3.9,7,3.8,7C3.5,6.9,3.2,6.6,3.2,6.2c0-0.4,0.2-0.7,0.6-0.8c0.1,0,0.2,0,0.4,0H5.4z M12.2,14H2V5.1c0-0.1,0-0.2,0.1-0.3
		l2.6-2.6C4.9,2.1,5,2,5.1,2h7.1V14z M13.3,0c-0.1,0-0.1,0-0.3,0H4.8C4.7,0,4.6,0,4.6,0c-0.4,0-0.7,0.2-1,0.5L0.5,3.6
		C0.2,3.8,0,4.2,0,4.5c0,0.1,0,0.2,0,0.2v10.1c0,0.1,0,0.2,0,0.3c0,0.4,0.4,0.8,0.9,0.9c0.1,0,0.1,0,0.3,0h12c0.1,0,0.2,0,0.3,0
		c0.4,0,0.8-0.4,0.9-0.9c0-0.1,0-0.1,0-0.3V1.1c0-0.1,0-0.2,0-0.3C14.2,0.4,13.8,0.1,13.3,0z"/>
</g>
</svg>
